# xmcd
#
# Track frame offsets:
#	182
#	12022
#	24837
#	37877
#	49175
#	63545
#	75100
#	87672
#	100265
#	112385
#	125097
#
# Disc length: 1828
#
# Revision: 3
# Processed by: cddbd v1.5.1PL0 Copyright (c) Steve Scherf et al.
# Submitted via: Media_Universe 3.0
# Normalized: r2:DSETVAR1
#
DISCID=8607220b
DTITLE=Various Artist - The Complete Motown Anthology Disc 1
DYEAR=1900
DGENRE=Motown
TTITLE0=Barrett Strong - Money (That's What I Want)
TTITLE1=Miracles - Shop Around
TTITLE2=Contours - Do You Love Me
TTITLE3=Marvelettes - Please Mr. Postman
TTITLE4=Stevie Wonder - Fingertips (Part 2)
TTITLE5=Marvin Gaye - Hitch Hike
TTITLE6=Miracles - Mickey's Monkey
TTITLE7=Martha and The Vandellas - (Love Is Like A) Heatwave
TTITLE8=Temptations - The Way You Do The Things You Do
TTITLE9=Mary Wells - My Guy
TTITLE10=Mary Wells - A Lovely Way To Spend An Evening
EXTD=
EXTT0=
EXTT1=
EXTT2=
EXTT3=
EXTT4=
EXTT5=
EXTT6=
EXTT7=
EXTT8=
EXTT9=
EXTT10=
PLAYORDER=
